<?xml version="1.0" encoding="UTF-8"?>
<svg id="_Слой_3" data-name="Слой 3" xmlns="http://www.w3.org/2000/svg" viewBox="0 0 436.97 173.08">
  <defs>
    <style>
      .cls-1 {
        stroke: #fff;
        stroke-miterlimit: 10;
      }

      .cls-1, .cls-2 {
        fill: red;
      }
    </style>
  </defs>
  <g>
    <path class="cls-1" d="m78.53,62.88s.09.08.13.12l.02-.02-.15-.1Zm30.51,27.01c.24-.3.46-.61.68-.91-.22.31-.44.62-.68.91Zm0,0c.24-.3.46-.61.68-.91-.22.31-.44.62-.68.91Zm-30.51-27.01s.09.08.13.12l.02-.02-.15-.1Zm30.51,27.01c.24-.3.46-.61.68-.91-.22.31-.44.62-.68.91Zm-30.51-27.01s.09.08.13.12l.08-.08-.21-.04Z"/>
    <path class="cls-1" d="m145.83,75.76c-2.27-6.5-6.27-12.48-11.92-17.23-3.77-3.16-7.96-5.5-12.34-7.04-14.91-5.24-32.11-1.19-43.04,11.4-.14-.14-.28-.27-.42-.4-.14-.13-.28-.25-.41-.37-.1-.09-.21-.18-.31-.27-.02-.02-.03-.03-.05-.05-.06-.05-.12-.1-.18-.14-.17-.15-.35-.29-.53-.42-.06-.05-.12-.09-.18-.14-.14-.11-.29-.21-.44-.32-.06-.04-.12-.08-.18-.13-.08-.06-.17-.12-.26-.18-.1-.07-.21-.14-.31-.2-.01-.01-.03-.02-.04-.03-.1-.07-.21-.13-.31-.2-.29-.18-.6-.36-.9-.52-.09-.05-.17-.1-.26-.14-.16-.08-.31-.16-.47-.24-.08-.04-.16-.08-.24-.12-.84-.4-1.71-.74-2.59-1.02-.11-.03-.21-.06-.32-.1-.17-.05-.34-.1-.51-.15-.17-.05-.34-.09-.51-.13-.05-.02-.09-.03-.14-.04-.13-.03-.27-.06-.4-.09h-.04c-.19-.05-.38-.09-.57-.12-.26-.05-.53-.09-.79-.13-.15-.02-.3-.04-.45-.06-.31-.04-.63-.07-.94-.09-.17-.01-.34-.02-.51-.03-.36-.02-.72-.03-1.08-.02-.15,0-.29,0-.44,0-.02,0-.04,0-.06,0-.13,0-.26,0-.39.01-.03,0-.07,0-.1,0-.02,0-.04,0-.06,0-.14,0-.27.01-.41.03-.34.02-.68.06-1.01.1-.25.03-.5.07-.75.11-.01,0-.02,0-.04,0-.15.03-.3.05-.45.08-.03,0-.05,0-.07.01-.23.04-.45.09-.67.14h0c-3.6.82-7.01,2.63-9.81,5.43-.19.19-.38.39-.56.58-6.8,7.35-7.17,18.49-1.13,26.26-8.13-8.51-12.11-19.53-11.94-30.49h0c.17-10.83,4.38-21.61,12.64-29.87.64-.64,1.3-1.26,1.96-1.85,8.42-7.44,19.05-11.04,29.61-10.79.17,0,.34,0,.52.02.17,0,.34.01.51.02,16.37.69,32.53,7.28,45.02,19.78,10.98,10.98,17.41,24.8,19.27,39.09Z"/>
    <path class="cls-1" d="m134.08,63.37c3.48,3.48,6.18,7.45,8.09,11.69,3.06,6.75,4.12,14.2,3.18,21.43h0c-.53,3.02-1.27,6-2.22,8.93,0,0,0,.01,0,.01-3.19,9.89-8.71,19.19-16.57,27.05-26.46,26.46-69.35,26.46-95.81,0-1.2-1.2-2.35-2.45-3.45-3.72,15.97,10.81,37.85,8.01,50.52-7.09.38-.45.75-.91,1.1-1.38.17-.18.33-.36.49-.55l27.99-27.99c.14-.14.28-.29.42-.43.17-.17.33-.35.48-.53.12-.13.23-.27.35-.41h0c.13-.16.25-.31.37-.47h.01c.24-.31.46-.62.68-.93.03-.04.06-.08.08-.12.1-.15.2-.29.3-.45.11-.17.22-.34.32-.51.06-.09.12-.19.17-.29.09-.15.17-.29.25-.45s.17-.3.24-.46c.08-.15.16-.31.23-.46.08-.15.15-.31.22-.47.07-.16.14-.31.21-.47.06-.15.12-.29.18-.44.07-.17.13-.34.2-.52.06-.14.11-.29.15-.43.06-.16.11-.32.16-.48.11-.36.22-.73.31-1.09.03-.12.06-.24.09-.36.03-.14.06-.28.09-.41,0-.03.01-.06.02-.08.05-.24.1-.48.13-.72,0-.02,0-.03,0-.05.04-.25.08-.51.11-.77.02-.13.03-.26.05-.39.03-.24.05-.49.07-.73.03-.4.05-.8.05-1.2.01-.87-.03-1.75-.13-2.62-.02-.17-.04-.33-.06-.49-.02-.17-.05-.34-.08-.5-.02-.13-.04-.26-.07-.4-.11-.57-.23-1.13-.39-1.69-.07-.25-.14-.5-.22-.74-.02-.07-.04-.13-.06-.19-.04-.12-.08-.24-.12-.36-.05-.15-.11-.3-.16-.45,0,0,0-.02-.01-.03-.06-.15-.11-.29-.17-.44-.04-.09-.07-.18-.11-.27-.04-.08-.07-.16-.11-.25-.06-.15-.13-.29-.2-.44-.13-.28-.27-.57-.42-.85-.45-.86-.96-1.69-1.54-2.48-.07-.1-.15-.2-.22-.3-.08-.11-.16-.21-.24-.31-.04-.05-.07-.09-.11-.14-.06-.07-.12-.15-.18-.22-.09-.11-.18-.22-.27-.32-.08-.09-.16-.19-.24-.28-.01-.02-.03-.03-.05-.05-.08-.1-.17-.2-.26-.29-.17-.18-.34-.36-.51-.54-.16-.16-.32-.31-.48-.46-.1-.09-.2-.19-.3-.28-.22-.2-.43-.39-.66-.57-.37-.31-.75-.6-1.14-.88,0,0,0,0,0,0-.19-.13-.37-.26-.57-.39,0,0-.02-.02-.03-.02-.19-.12-.38-.25-.58-.37,0,0,0,0-.01,0-.18-.11-.36-.22-.55-.33-.24-.14-.49-.27-.73-.4-.18-.09-.37-.18-.55-.27-.01,0-.03-.01-.04-.02-.21-.1-.41-.19-.62-.28-.27-.11-.53-.22-.8-.33-.11-.05-.23-.09-.34-.13-.53-.19-1.06-.36-1.61-.51-.07-.02-.15-.04-.23-.06-.55-.15-1.11-.27-1.68-.36-.08-.02-.16-.03-.24-.04-.72-.11-1.45-.19-2.18-.23-.16,0-.32-.01-.48-.02-.18,0-.36,0-.54,0-.16,0-.31,0-.47,0-.8.02-1.59.08-2.38.2-.08,0-.16.02-.24.04-.4.06-.8.13-1.2.22-.08.01-.16.03-.24.05-.08.01-.16.03-.24.06-.1.02-.2.05-.29.07-.22.05-.44.11-.65.18-.15.04-.29.09-.44.13-.09.02-.17.05-.25.08-.08.03-.17.06-.25.08-.13.04-.26.09-.38.14-.17.06-.34.13-.5.19-.16.06-.31.13-.47.19-.16.07-.31.13-.46.21-.16.07-.31.14-.46.22-.3.14-.59.3-.88.46-.15.08-.29.16-.44.25-.17.1-.34.2-.51.31-.18.11-.36.23-.53.35-.06.04-.12.07-.17.12-.17.11-.34.23-.51.36-.19.14-.38.28-.57.43-.02.02-.05.04-.07.06-.18.14-.35.29-.53.44-.07.06-.14.12-.21.18-.2.17-.4.36-.6.55-.07.07-.14.13-.21.2-.04.04-.08.08-.12.12l-.21-.04c11.99-11.58,29.47-14.12,43.87-7.6,4.23,1.91,8.2,4.61,11.68,8.09Z"/>
    <path class="cls-1" d="m51.11,22.65c-2.69,1.99-5.2,4.32-7.44,7-7.51,8.95-10.77,20.06-9.99,30.86h0c.79,10.94,5.72,21.56,14.56,29.33h0c.51.67,1.07,1.3,1.68,1.91l28.74,28.74.24-.24s.02.02.03.03c-.39.44-.8.86-1.22,1.28-12.33,12.33-31.01,14.44-45.52,6.34-3-1.68-5.83-3.79-8.37-6.34-3.84-3.84-6.69-8.29-8.54-13.04-.02-.04-.03-.08-.05-.12-.18-.47-.35-.95-.52-1.42-.07-.21-.14-.42-.21-.63-8.01-23.65-2.59-50.84,16.26-69.69,6.05-6.05,12.97-10.72,20.35-14.01Z"/>
    <polygon class="cls-1" points="78.53 62.88 78.74 62.93 78.68 62.98 78.53 62.88"/>
  </g>
  <path class="cls-2" d="m206.15,56.58v27.37h-6.26v-7.27h-5.79l-4.85,7.27h-6.69l5.71-8.25c-1.85-.76-3.27-1.9-4.26-3.42-.99-1.53-1.49-3.36-1.49-5.49s.48-3.93,1.45-5.46c.96-1.53,2.33-2.7,4.11-3.52,1.77-.82,3.86-1.23,6.26-1.23h11.81Zm-15.78,6.41c-.95.83-1.43,2.07-1.43,3.71s.46,2.82,1.37,3.68c.91.86,2.25,1.29,4.03,1.29h5.55v-9.93h-5.4c-1.8,0-3.17.42-4.12,1.25Zm53.57-5.2c1.79.81,3.16,1.96,4.13,3.44.96,1.49,1.45,3.25,1.45,5.28s-.48,3.76-1.45,5.26c-.96,1.5-2.34,2.65-4.13,3.44-1.79.8-3.89,1.19-6.32,1.19h-5.51v7.55h-6.33v-27.37h11.85c2.42,0,4.53.41,6.32,1.21Zm-2.33,12.22c.99-.82,1.49-1.99,1.49-3.5s-.5-2.72-1.49-3.54c-.99-.82-2.44-1.23-4.34-1.23h-5.16v9.5h5.16c1.9,0,3.35-.41,4.34-1.23Zm42.04,8.08h-12.71l-2.42,5.87h-6.49l12.2-27.37h6.26l12.24,27.37h-6.65l-2.42-5.87Zm-2-4.81l-4.34-10.48-4.34,10.48h8.68Zm47.04-11.54h-8.76v22.21h-6.26v-22.21h-8.72v-5.16h23.74v5.16Zm21.76,20.84c-2.28-1.22-4.07-2.91-5.36-5.06-1.29-2.15-1.94-4.57-1.94-7.25s.64-5.1,1.94-7.25c1.29-2.15,3.08-3.84,5.36-5.06,2.28-1.23,4.84-1.84,7.68-1.84s5.4.61,7.67,1.84c2.27,1.23,4.05,2.91,5.36,5.06,1.3,2.15,1.96,4.57,1.96,7.25s-.65,5.1-1.96,7.25c-1.3,2.15-3.09,3.84-5.36,5.06-2.27,1.23-4.82,1.84-7.67,1.84s-5.4-.61-7.68-1.84Zm12.06-4.67c1.3-.74,2.33-1.78,3.07-3.11.74-1.33,1.11-2.84,1.11-4.54s-.37-3.21-1.11-4.54c-.74-1.33-1.77-2.37-3.07-3.11s-2.76-1.11-4.38-1.11-3.08.37-4.38,1.11c-1.3.74-2.33,1.78-3.07,3.11-.74,1.33-1.11,2.84-1.11,4.54s.37,3.21,1.11,4.54c.74,1.33,1.77,2.37,3.07,3.11,1.3.74,2.76,1.11,4.38,1.11s3.08-.37,4.38-1.11Zm53.38-21.33v27.37h-6.33v-11.22h-12.44v11.22h-6.33v-27.37h6.33v10.79h12.44v-10.79h6.33Zm-175.01,49.91h-2.46v6.18h-3.53v-15.35h3.53v6.2h2.54l4.03-6.2h3.75l-5.02,7.41,5.17,7.94h-4.03l-3.99-6.18Zm32.47-9.16l-6.53,12.14c-.63,1.17-1.38,2.05-2.27,2.65-.88.6-1.84.9-2.88.9-.8,0-1.64-.17-2.5-.53l.86-2.7c.61.19,1.12.29,1.53.29.44,0,.83-.11,1.18-.32.35-.21.67-.54.96-1l.13-.17-6.05-11.27h3.79l4.08,8.24,4.21-8.24h3.49Zm20.53.68c1,.45,1.77,1.1,2.31,1.93.54.83.81,1.82.81,2.96s-.27,2.11-.81,2.95c-.54.84-1.31,1.48-2.31,1.93-1,.45-2.18.67-3.54.67h-3.09v4.23h-3.55v-15.35h6.64c1.36,0,2.54.23,3.54.68Zm-1.3,6.85c.55-.46.83-1.11.83-1.96s-.28-1.52-.83-1.98c-.56-.46-1.37-.69-2.43-.69h-2.89v5.33h2.89c1.07,0,1.88-.23,2.43-.69Zm18.67,7.05c-1.28-.69-2.28-1.63-3-2.84-.72-1.21-1.08-2.56-1.08-4.07s.36-2.86,1.08-4.07c.72-1.21,1.72-2.15,3-2.84,1.28-.69,2.71-1.03,4.31-1.03s3.03.34,4.3,1.03c1.27.69,2.27,1.63,3,2.84.73,1.21,1.1,2.56,1.1,4.07s-.37,2.86-1.1,4.07c-.73,1.21-1.73,2.15-3,2.84-1.27.69-2.7,1.03-4.3,1.03s-3.03-.34-4.31-1.03Zm6.76-2.62c.73-.42,1.3-1,1.72-1.74.42-.75.62-1.59.62-2.54s-.21-1.8-.62-2.54c-.42-.75-.99-1.33-1.72-1.74-.73-.42-1.55-.62-2.46-.62s-1.72.21-2.46.62c-.73.42-1.3,1-1.72,1.74-.42.75-.62,1.59-.62,2.54s.21,1.8.62,2.54c.42.75.99,1.33,1.72,1.74.73.42,1.55.62,2.46.62s1.72-.21,2.46-.62Zm27.52-11.28c1,.45,1.77,1.1,2.31,1.93.54.83.81,1.82.81,2.96s-.27,2.11-.81,2.95c-.54.84-1.31,1.48-2.31,1.93-1,.45-2.18.67-3.54.67h-3.09v4.23h-3.55v-15.35h6.64c1.36,0,2.54.23,3.54.68Zm-1.3,6.85c.55-.46.83-1.11.83-1.96s-.28-1.52-.83-1.98c-.56-.46-1.37-.69-2.43-.69h-2.89v5.33h2.89c1.07,0,1.88-.23,2.43-.69Zm26.75-4.64h-4.91v12.45h-3.51v-12.45h-4.89v-2.89h13.31v2.89Z"/>
</svg>